<?xml version="1.0" encoding="UTF-8"?>
<svg width="1200" height="630" viewBox="0 0 1200 630" xmlns="http://www.w3.org/2000/svg">
    <!-- 배경 -->
    <rect width="1200" height="630" fill="#0a0a0a"/>
    
    <!-- 장식적인 테두리 -->
    <rect x="20" y="20" width="1160" height="590" fill="none" stroke="#d4af37" stroke-width="2"/>
    <rect x="40" y="40" width="1120" height="550" fill="none" stroke="#d4af37" stroke-width="1" opacity="0.5"/>
    
    <!-- 카드 심볼 배경 (반투명) -->
    <g opacity="0.1">
        <!-- 스페이드 -->
        <path d="M200 200 C200 200 150 300 300 300 C450 300 400 200 400 200 C400 200 350 400 300 400 C250 400 200 200 200 200" fill="#ffffff"/>
        <!-- 하트 -->
        <path d="M800 200 C800 200 750 150 700 200 C650 250 700 300 800 350 C900 300 950 250 900 200 C850 150 800 200 800 200" fill="#ffffff"/>
    </g>
    
    <!-- 메인 텍스트 -->
    <text x="600" y="250" font-family="'Noto Serif KR', serif" font-size="72" font-weight="bold" fill="#d4af37" text-anchor="middle">
        BACCARAT
    </text>
    <text x="600" y="350" font-family="'Noto Serif KR', serif" font-size="48" fill="#ffffff" text-anchor="middle">
        시뮬레이션
    </text>
    
    <!-- 서브 텍스트 -->
    <text x="600" y="450" font-family="'Noto Serif KR', serif" font-size="24" fill="#888888" text-anchor="middle">
        교육용 바카라 게임 시뮬레이터
    </text>
    
    <!-- 하단 장식선 -->
    <line x1="400" y1="500" x2="800" y2="500" stroke="#d4af37" stroke-width="2"/>
    
    <!-- 코너 장식 -->
    <g fill="#d4af37">
        <!-- 좌상단 -->
        <path d="M40 40 L80 40 L80 45 L45 45 L45 80 L40 80 Z"/>
        <!-- 우상단 -->
        <path d="M1160 40 L1120 40 L1120 45 L1155 45 L1155 80 L1160 80 Z"/>
        <!-- 좌하단 -->
        <path d="M40 590 L80 590 L80 585 L45 585 L45 550 L40 550 Z"/>
        <!-- 우하단 -->
        <path d="M1160 590 L1120 590 L1120 585 L1155 585 L1155 550 L1160 550 Z"/>
    </g>
</svg> 